<!-- Created with Inkscape (http://www.inkscape.org/) -->
<svg width="210mm" height="297mm" version="1.1" viewBox="0 0 210 297" xmlns="http://www.w3.org/2000/svg" style="height: 100%; width: auto; fill: red;">
 <g transform="matrix(.30082 0 0 .32346 217.86 -310.34)">
  <path d="m-92.099 428.91c-81.869 0-148.24 66.367-148.24 148.24s66.367 148.24 148.24 148.24c81.867 0 148.23-66.367 148.23-148.24s-66.367-148.24-148.23-148.24zm48.252 202.12c-15.776 5.042-30.059 0.176-39.122-9.254 0.711 13.167 2.653 29.335 7.702 38.37h-33.666c5.049-9.035 6.991-25.202 7.702-38.369-9.063 9.43-23.347 14.295-39.121 9.253-27.906-8.921-57.13-68.825 48.253-136.07 105.38 67.246 76.158 127.15 48.252 136.07z"/>
 </g>
 <g transform="matrix(.26458 0 0 .26458 362.99 110.68)">
  <path d="m148.24 0c-81.869 0-148.24 66.367-148.24 148.24s66.367 148.24 148.24 148.24c81.867 0 148.23-66.367 148.23-148.24s-66.366-148.24-148.23-148.24zm36.721 199.93c-10.663 0-20.38-4.012-27.757-10.593 0.548 13.68 2.357 32.038 7.868 41.9h-33.666c5.511-9.861 7.32-28.219 7.867-41.897-7.377 6.579-17.093 10.59-27.756 10.59-23.055 0-41.744-18.69-41.744-41.746 0-21.685 16.533-39.502 37.681-41.545-0.659-2.946-1.019-6.006-1.019-9.15 0-23.056 18.689-41.745 41.746-41.745 23.055 0 41.744 18.689 41.744 41.745 0 3.142-0.358 6.198-1.017 9.142 21.202 1.99 37.796 19.83 37.796 41.554 1e-3 23.054-18.688 41.745-41.743 41.745z"/>
 </g>
 <g transform="matrix(.26458 0 0 .26458 370.55 4.8462)">
  <path d="m148.24 0c-81.869 0-148.24 66.367-148.24 148.24 0 81.869 66.367 148.24 148.24 148.24 81.867 0 148.23-66.367 148.23-148.24 1e-3 -81.868-66.366-148.24-148.23-148.24zm-1e-3 239.22c-127-81.04-91.78-153.23-58.15-163.98 28.343-9.059 52.715 8.4 58.15 31.099 5.436-22.698 29.808-40.157 58.15-31.099 33.63 10.75 68.85 82.942-58.15 163.98z"/>
 </g>
 <rect x="3.9152" y="4.2435" width="202.38" height="288.84" ry="1.0424e-13" style="fill:none;paint-order:normal;stroke-dashoffset:82.667;stroke-linecap:round;stroke-linejoin:bevel;stroke-width:7.5454;stroke:#f00"/>
 <text transform="scale(.96436 1.037)" x="22.311001" y="51.98756" style="fill:#ff0000;font-family:'Noto Serif Display';font-feature-settings:normal;font-size:48.539px;font-variant-caps:normal;font-variant-ligatures:normal;font-variant-numeric:normal;font-weight:bold;letter-spacing:0px;line-height:1.25;stroke-width:1.2135;word-spacing:0px" xml:space="preserve"><tspan x="22.311001" y="51.98756" style="font-family:'Noto Serif Display';font-feature-settings:normal;font-size:48.539px;font-variant-caps:normal;font-variant-ligatures:normal;font-variant-numeric:normal;font-weight:bold;stroke-width:1.2135">{value}</tspan></text>
 <text transform="scale(.96436 1.037)" x="165.92529" y="269.71985" style="fill:#ff0000;font-family:'Noto Serif Display';font-feature-settings:normal;font-size:48.539px;font-variant-caps:normal;font-variant-ligatures:normal;font-variant-numeric:normal;font-weight:bold;letter-spacing:0px;line-height:1.25;stroke-width:1.2135;word-spacing:0px" xml:space="preserve"><tspan x="165.92529" y="269.71985" style="font-family:'Noto Serif Display';font-feature-settings:normal;font-size:48.539px;font-variant-caps:normal;font-variant-ligatures:normal;font-variant-numeric:normal;font-weight:bold;stroke-width:1.2135">{value}</tspan></text>
 <g transform="matrix(.26458 0 0 .26458 66.657 102.05)">
  <path d="m292.68 114.76c-0.552-2.391-1.161-4.759-1.827-7.104-1.665-5.862-3.682-11.576-6.026-17.118-0.938-2.217-1.927-4.406-2.968-6.566-0.52-1.08-1.054-2.153-1.6-3.219-24.555-47.941-74.455-80.752-132.02-80.752h-2e-3c-57.562 0-107.46 32.811-132.02 80.751-0.546 1.065-1.079 2.139-1.6 3.219-1.561 3.24-3.008 6.546-4.335 9.912-1.77 4.487-3.327 9.083-4.659 13.772-0.666 2.346-1.275 4.714-1.827 7.104-2.483 10.759-3.796 21.965-3.796 33.478s1.313 22.719 3.796 33.478c0.552 2.391 1.161 4.759 1.827 7.104 1.332 4.689 2.89 9.285 4.659 13.773 1.327 3.366 2.774 6.672 4.335 9.912 0.521 1.08 1.054 2.153 1.6 3.219 24.555 47.94 74.455 80.751 132.02 80.751h2e-3c57.563 0 107.46-32.81 132.02-80.751 0.546-1.065 1.079-2.139 1.6-3.219 1.041-2.16 2.03-4.35 2.968-6.566 2.345-5.542 4.361-11.256 6.026-17.118 0.666-2.346 1.275-4.714 1.827-7.104 2.483-10.759 3.796-21.965 3.796-33.478s-1.314-22.719-3.797-33.478zm-77.94 33.477-66.5 87.334-66.5-87.334 66.5-87.334z"/>
 </g>
</svg>
