<!-- Created with Inkscape (http://www.inkscape.org/) -->
<svg width="210mm" height="297mm" version="1.1" viewBox="0 0 210 297" xmlns="http://www.w3.org/2000/svg" style="height: 100%; width: auto;">
 <g transform="matrix(1.1369 0 0 1.2225 -14.317 -34.063)">
  <g transform="matrix(.26458 0 0 .26458 130.41 -7.7109)">
   <path d="m-92.099 428.91c-81.869 0-148.24 66.367-148.24 148.24s66.367 148.24 148.24 148.24c81.867 0 148.23-66.367 148.23-148.24s-66.367-148.24-148.23-148.24zm48.252 202.12c-15.776 5.042-30.059 0.176-39.122-9.254 0.711 13.167 2.653 29.335 7.702 38.37h-33.666c5.049-9.035 6.991-25.202 7.702-38.369-9.063 9.43-23.347 14.295-39.121 9.253-27.906-8.921-57.13-68.825 48.253-136.07 105.38 67.246 76.158 127.15 48.252 136.07z"/>
  </g>
  <rect x="16.036" y="31.334" width="178" height="236.27" ry="8.5265e-14" style="fill:none;paint-order:normal;stroke-dashoffset:82.667;stroke-linecap:round;stroke-linejoin:bevel;stroke-width:6.4;stroke:#000"/>
  <text x="31.516842" y="71.959061" style="fill:#000000;font-family:'Noto Serif Display';font-feature-settings:normal;font-size:41.171px;font-variant-caps:normal;font-variant-ligatures:normal;font-variant-numeric:normal;font-weight:bold;letter-spacing:0px;line-height:1.25;stroke-width:1.0293;word-spacing:0px" xml:space="preserve"><tspan x="31.516842" y="71.959061" style="font-family:'Noto Serif Display';font-feature-settings:normal;font-size:41.171px;font-variant-caps:normal;font-variant-ligatures:normal;font-variant-numeric:normal;font-weight:bold;stroke-width:1.0293">{value}</tspan></text>
  <text x="153.33112" y="256.64053" style="fill:#000000;font-family:'Noto Serif Display';font-feature-settings:normal;font-size:41.171px;font-variant-caps:normal;font-variant-ligatures:normal;font-variant-numeric:normal;font-weight:bold;letter-spacing:0px;line-height:1.25;stroke-width:1.0293;word-spacing:0px" xml:space="preserve"><tspan x="153.33112" y="256.64053" style="font-family:'Noto Serif Display';font-feature-settings:normal;font-size:41.171px;font-variant-caps:normal;font-variant-ligatures:normal;font-variant-numeric:normal;font-weight:bold;stroke-width:1.0293">{value}</tspan></text>
 </g>
</svg>
